<svg height="800" viewBox="0 0 1920 1920" width="800" xmlns="http://www.w3.org/2000/svg"><path d="m188 1544.887 373.633 373.6 60.77-60.678-270.118-270.095h1372.732v-85.74h-1372.732l270.118-270.095-60.77-60.593-373.633 373.6zm567.599-1459.06h162.74v543.192h-162.74c-149.78 0-271.663-121.787-271.663-271.553 0-149.853 121.883-271.64 271.663-271.64m0 629.02h162.74v540.36h85.833v-1169.379h225.656v1169.38h85.833v-1169.38h165.744v-85.827h-725.805c-197.075 0-357.497 160.323-357.497 357.466 0 197.056 160.422 357.38 357.496 357.38" fill-rule="evenodd"/></svg>