<svg fill="none" height="32" viewBox="0 0 360 320" width="36" xmlns="http://www.w3.org/2000/svg"><path d="m180 141.964c-16.301-31.702-60.692-90.7823-101.9653-119.92-39.5376-27.91234-54.6207-23.07607-64.5087-18.60806-11.44507 5.17161-13.526 22.74256-13.526 33.08046 0 10.3378 5.66748 84.7556 9.36416 97.1776 12.21444 41.044 55.69614 54.913 95.73984 50.462 2.047-.304 4.123-.584 6.225-.844-2.062.33-4.139.612-6.225.844-58.6836 8.691-110.80021 30.077-42.4458 106.174 75.1898 77.85 103.0468-16.693 117.3418-64.628 14.295 47.935 30.76 139.069 115.995 64.628 64.005-64.628 17.585-97.48-41.099-106.172-2.086-.232-4.163-.513-6.225-.843 2.102.259 4.178.54 6.225.843 40.044 4.452 83.525-9.418 95.74-50.461 3.697-12.422 9.364-86.8402 9.364-97.178 0-10.3379-2.081-27.90888-13.526-33.08049-9.888-4.468-24.971-9.30427-64.509 18.60809-41.273 29.1377-85.664 88.2154-101.965 119.9174z" fill="#000"/></svg>