<svg height="800" viewBox="0 0 20 20" width="800" xmlns="http://www.w3.org/2000/svg"><path d="m263.821537 7247.00386h-9.610239c0 .99944 0 2.99832-.006126 3.99775h5.568874c-.213402.99944-.97001 2.39865-2.039062 3.10326-.001021-.001-.002042.00599-.004084.00499-1.421319.93848-3.29701 1.15136-4.689739.87151-2.183031-.43375-3.910669-2.01686-4.612138-4.02773.004084-.003.007147-.03098.01021-.03298-.439057-1.2473-.439057-2.91736 0-3.9168h-.001021c.565669-1.83696 2.34538-3.51302 4.531475-3.97176 1.758269-.37279 3.742193.03098 5.201291 1.39621.194002-.18989 2.685394-2.62252 2.872248-2.82041-4.984826-4.51446-12.96647-2.92635-15.953077 2.90337h-.001021s.001021 0-.005105.01099c-1.477478 2.86339-1.416214 6.23749.01021 8.96396-.004084.00299-.007147.00499-.01021.00799 1.292664 2.50859 3.645192 4.43251 6.479661 5.16509 3.011112.78956 6.843159.24986 9.41011-2.07183.001021.001.002042.002.003063.003 2.174863-1.9589 3.528791-5.29602 2.84468-9.58661" fill-rule="evenodd" transform="translate(-244 -7239)"/></svg>