<svg xmlns="http://www.w3.org/2000/svg" width="26" height="24.056011" fill="none" stroke="currentColor" stroke-width="1.5" aria-hidden="true" data-slot="icon" preserveAspectRatio="xMidYMid" viewBox="0 0 19.5 18.042008"><path stroke-linecap="round" stroke-linejoin="round" d="M9.75 3.0420091a8.967 8.967 0 0 0-6-2.29200001c-1.052 0-2.062.18-3 .51200001V15.512009a8.987 8.987 0 0 1 3-.512c2.305 0 4.408.867 6 2.292m0-14.2499999a8.966 8.966 0 0 1 6-2.29200001c1.052 0 2.062.18 3 .51200001V15.512009a8.987 8.987 0 0 0-3-.512 8.967 8.967 0 0 0-6 2.292m0-14.2499999V17.292009" style="display:inline;fill:#fff"/><path stroke="none" d="M7.963838 15.210144c-1.724458-.823348-3.4484369-1.128233-5.2170079-.922626-.5648021.065663-1.0620935.141128-1.1050919.167702-.0429984.026575-.0781789-2.808235-.0781789-6.2995769V1.8077486l.5762829-.1157342c.9250991-.1857864 2.6069608-.1435178 3.5810566.0899994.9758049.2339269 2.3252462.8628225 2.8877792 1.3458248l.384102.3297976-.02817 6.1084399-.02817 6.1084409ZM10.512712 9.5577461V3.4161053l.480233-.3666848c.677875-.5175966 1.819322-1.0356036 2.800131-1.2707444.95992-.230133 2.648422-.2711549 3.567082-.086662l.576283.1157342v6.3478948c0 3.4913419-.03518 6.3261519-.07818 6.2995769-.043-.02657-.54029-.102039-1.105092-.167702-1.784926-.207508-3.401985.0795-5.198085.92258l-1.042373.489288z" style="fill:#fff;stroke:#000;stroke-width:0;stroke-linecap:round;stroke-linejoin:round;stroke-dasharray:none;paint-order:stroke fill markers"/></svg>