<svg fill="none" height="32" width="124" xmlns="http://www.w3.org/2000/svg"><path d="m36.87 10.07h3v12.13h-3zm4.19 7.55c0-3 1.84-4.79 4.68-4.79s4.68 1.79 4.68 4.79-1.8 4.8-4.68 4.8-4.68-1.75-4.68-4.8zm6.35 0c0-1.65-.65-2.62-1.67-2.62s-1.66 1-1.66 2.62.63 2.6 1.66 2.6 1.67-.92 1.67-2.59zm4.14 5.17h2.88c.1371.3045.3688.5566.6607.7188.2919.1621.6284.2257.9593.1812 1.14 0 1.74-.62 1.74-1.52v-1.68h-.06c-.239.5149-.6269.9463-1.1135 1.2387-.4866.2923-1.0497.4321-1.6165.4013-2.19 0-3.64-1.67-3.64-4.54s1.38-4.68 3.68-4.68c.5846-.0229 1.1622.1334 1.6555.4479.4933.3146.8787.7724 1.1045 1.3121v-1.67h3v9.1c0 2.19-1.93 3.55-4.78 3.55-2.65 0-4.3-1.19-4.47-2.85zm6.25-5.18c0-1.46-.67-2.38-1.73-2.38s-1.71.91-1.71 2.38.64 2.3 1.71 2.3 1.73-.81 1.73-2.29zm4.13 0c0-3 1.84-4.79 4.68-4.79s4.69 1.79 4.69 4.79-1.8 4.8-4.69 4.8-4.68-1.74-4.68-4.79zm6.35 0c0-1.65-.65-2.62-1.67-2.62s-1.61 1.01-1.61 2.64.63 2.6 1.65 2.6 1.63-.93 1.63-2.6zm4.16-6.79c-.0079-.3029.0744-.6013.2363-.85739.162-.2561.3963-.45834.6733-.5811s.5842-.16051.8827-.10846c.2985.05206.5748.19157.7939.40084.2192.20928.3712.47891.4369.77471s.0421.6044-.0679.8868c-.1099.2823-.3012.5257-.5496.6992-.2483.1735-.5427.2694-.8456.2754-.2008.0138-.4023-.0141-.5918-.0819-.1896-.0678-.363-.174-.5095-.3121-.1465-.138-.2629-.3049-.3418-.4901-.079-.1851-.1188-.3846-.1169-.5859zm0 2.2h3v9.18h-3zm13.89 4.59c0 3-1.33 4.71-3.61 4.71-.5846.0375-1.1667-.1054-1.6675-.4094-.5008-.3041-.8961-.7546-1.1325-1.2906h-.06v4.52h-3v-12.14h3v1.64h.06c.2254-.5449.6132-1.0071 1.1106-1.3238s1.0803-.4725 1.6694-.4462c2.3.04 3.67 1.76 3.67 4.76zm-3 0c0-1.46-.67-2.39-1.72-2.39s-1.72.94-1.73 2.39.68 2.38 1.73 2.38 1.72-.91 1.72-2.36zm8.15-4.8c2.49 0 4 1.18 4.07 3.07h-2.73c0-.65-.54-1.06-1.37-1.06s-1.2.32-1.2.79.33.62 1 .76l1.92.39c1.83.39 2.61 1.13 2.61 2.52 0 1.9-1.73 3.12-4.28 3.12s-4.22-1.22-4.35-3.09h2.89c.09.68.63 1.08 1.51 1.08s1.28-.29 1.28-.77-.28-.58-1-.73l-1.73-.37c-1.79-.37-2.73-1.32-2.73-2.72.02-1.8 1.63-2.97 4.11-2.97zm14.31 9.37h-2.89v-1.71h-.06c-.159.5741-.509 1.0766-.993 1.4241-.484.3474-1.072.5189-1.667.4859-.4558.0259-.9118-.0463-1.3373-.2118s-.8105-.4203-1.129-.7474c-.3185-.327-.5632-.7187-.7173-1.1484-.1542-.4297-.2143-.8875-.1764-1.3424v-5.93h3v5.24c0 1.09.56 1.67 1.49 1.67.218.0004.434-.0457.633-.1354.198-.0897.376-.2209.52-.3847.143-.1639.251-.3566.314-.5652.063-.2087.082-.4285.053-.6447v-5.18h3zm1.45-9.18h2.9v1.77h.06c.159-.5665.502-1.0643.974-1.4153s1.048-.5356 1.636-.5247c.599-.0479 1.193.1312 1.666.5018.472.3706.788.9054.884 1.4982h.06c.181-.5991.557-1.1207 1.068-1.4828.51-.3621 1.127-.5441 1.752-.5172.408-.0137.814.0586 1.192.2122.379.1535.72.385 1.003.6792.283.2943.501.6448.64 1.0287.138.3839.195.7928.165 1.1999v6.25h-3v-5.45c0-1-.45-1.46-1.29-1.46-.187-.0016-.373.037-.544.1132s-.324.1882-.448.3285-.217.3055-.272.4846c-.055.1792-.07.368-.046.5537v5.43h-2.85v-5.49c0-.92-.45-1.42-1.27-1.42-.189.0001-.377.0403-.549.118-.173.0778-.328.1913-.453.333-.126.1417-.22.3085-.277.4894-.056.1808-.074.3715-.051.5596v5.41h-3zm-78.76-2.38c-.5089-1.16364-1.1824-2.24807-2-3.22-1.2085-1.47966-2.7167-2.68661-4.4253-3.5414-1.7086-.85478-3.5789-1.33803-5.4877-1.41794s-3.8129.24533-5.587.95433c-1.77403.70899-3.37783 1.78566-4.7058 3.15914-1.32798 1.37347-2.35003 3.01262-2.99888 4.80957-.64885 1.7969-.9098 3.7109-.76566 5.6159.14415 1.9051.6901 3.758 1.60194 5.4368.91184 1.6789 2.16889 3.1456 3.68841 4.3036.975.7579 2.05235 1.374 3.19999 1.83 1.609.6594 3.3311.999 5.07 1 3.5894-.0079 7.0292-1.4387 9.5655-3.9787 2.5362-2.54 3.9619-5.9819 3.9645-9.5713.0026-1.8515-.3787-3.6834-1.12-5.38zm-12.42-5.43001c1.5616-.00016 3.1043.34114 4.52 1-.3452.14917-.7082.25336-1.08.31001-1.2234.17709-2.3567.74507-3.2308 1.61917-.8741.87409-1.4421 2.00743-1.6192 3.23083-.0777.6861-.3898 1.3244-.8835 1.8072s-1.1388.7804-1.8265.8428c-1.2234.1771-2.35673.7451-3.23082 1.6192s-1.44208 2.0074-1.61917 3.2308c-.05996.6524-.33831 1.2655-.79 1.74-.77935-1.6467-1.12945-3.4639-1.01773-5.2823s.68163-3.579 1.6567-5.118c.97506-1.53891 2.3236-2.80619 3.92012-3.68386 1.5965-.87767 3.3891-1.3372 5.2109-1.33585zm-8.26999 17.81001c.12-.11.24-.21.36-.33.88965-.8625 1.46071-2.0011 1.62-3.23.06458-.6908.37299-1.336.86999-1.82.4783-.4978 1.122-.8037 1.81-.86 1.2234-.1771 2.3567-.7451 3.2308-1.6192s1.4421-2.0074 1.6192-3.2308c.0433-.7225.3533-1.4032.87-1.91.4901-.48815 1.1399-.7829 1.83-.83001 1.1239-.15463 2.1721-.65428 3-1.42999.9427.78207 1.7413 1.72289 2.36 2.78-.038.0513-.0816.0983-.13.14-.4773.5022-1.1202.8148-1.81.88-1.2247.174-2.3597.741-3.2344 1.6156-.8746.8747-1.4416 2.0097-1.6156 3.2344-.0705.6884-.3768 1.3313-.867 1.8197-.4903.4885-1.1343.7924-1.823.8603-1.227.1757-2.3645.7426-3.2437 1.6163-.8791.8738-1.453 2.0078-1.6363 3.2337-.0538.4887-.2217.958-.49 1.37-1.026-.6092-1.9449-1.3828-2.71999-2.29zm8.26999 3.86c-1.0147.0011-2.0246-.1403-3-.42.3337-.622.5506-1.2999.64-2 .0701-.6869.375-1.3286.8632-1.8168s1.1299-.7931 1.8168-.8632c1.2252-.1751 2.3608-.7422 3.2369-1.6165.876-.8742 1.4455-2.0087 1.6231-3.2335.0701-.6869.375-1.3286.8632-1.8168s1.1299-.7931 1.8168-.8632c.922-.1199 1.8008-.4632 2.56-1 .4216 1.5979.4715 3.2711.146 4.8913s-1.0179 3.1444-2.0239 4.4555c-1.006 1.311-2.2989 2.3743-3.7797 3.1081-1.4807.7338-3.1098 1.1187-4.7624 1.1251z" fill="#394149"/></svg>
