<svg viewBox="0 0 522.08 321.57" xmlns="http://www.w3.org/2000/svg" xmlns:xlink="http://www.w3.org/1999/xlink"><clipPath id="a"><path d="m376.27 229.76h21.15v21.15h-21.15z"/></clipPath><rect fill="#fff" height="320.57" rx="8.1" stroke="#000" stroke-miterlimit="10" width="521.08" x=".5" y=".5"/><g fill="#e6e6e6"><rect height="33.69" rx="3.8" width="185.69" x="167.97" y="42.65"/><rect height="24.7" rx="3.8" width="441.99" x="39.82" y="86.49"/><rect height="24.7" rx="3.8" width="231.31" x="145.16" y="121.34"/></g><rect fill="#fff" height="133.19" rx="8.1" stroke="#000" stroke-miterlimit="10" width="238.58" x="13.37" y="172.99"/><rect fill="#e6e6e6" height="14.55" rx="3.8" width="212.15" x="26.93" y="233.07"/><rect fill="#e6e6e6" height="31.98" rx="3.8" width="212.15" x="26.58" y="259.97"/><rect fill="none" height="133.19" rx="2.87" stroke="#aaa" stroke-dasharray="2.87 2.87" stroke-width=".82" width="243.1" x="265.29" y="172.99"/><g clip-path="url(#a)"><path d="m393.01 241.22h-5.29v5.29h-1.76v-5.29h-5.29v-1.76h5.29v-5.29h1.76v5.29h5.29z" fill="#aaa"/></g><rect fill="#aaa" height="22.96" rx="3.8" width="22.96" x="26.93" y="193.81"/></svg>
