<svg viewBox="0 0 579.34 359.76" xmlns="http://www.w3.org/2000/svg"><rect fill="#fff" height="308.42" rx="8.1" stroke="#000" stroke-miterlimit="10" width="192.35" x="182.47" y=".5"/><rect height="26.98" rx="5.03" stroke="#000" stroke-miterlimit="10" width="136.88" x=".5" y="3.79"/><rect fill="#e6e6e6" height="162.52" rx="3.8" width="176.8" x="190.25" y="8.64"/><rect fill="#e6e6e6" height="24.7" rx="3.8" width="176.8" x="188.43" y="185.8"/><rect fill="#e6e6e6" height="24.7" rx="3.8" width="152.13" x="188.95" y="221.46"/><rect fill="#e6e6e6" height="24.7" rx="3.8" width="176.8" x=".5" y="44.74"/><rect fill="#e6e6e6" height="24.7" rx="3.8" width="152.13" x="1.02" y="80.4"/><rect fill="#e6e6e6" height="39.9" rx="3.8" width="578.45" x=".5" y="319.86"/><rect height="30.01" rx="5.03" stroke="#000" stroke-miterlimit="10" width="89.48" x="188.95" y="257.12"/><rect fill="#e6e6e6" height="9.85" rx=".99" width="29.99" x="197.66" y="267.2"/><rect fill="#e6e6e6" height="9.85" rx=".99" width="37.92" x="234.4" y="267.2"/><path d="m190.75 11.02 175.75 160.13m-.01-160.13-175.74 160.14" fill="none" stroke="#000"/><rect fill="#fff" height="308.42" rx="8.1" stroke="#000" stroke-miterlimit="10" width="192.35" x="386.49" y=".5"/><rect fill="#e6e6e6" height="162.52" rx="3.8" width="176.8" x="394.27" y="8.64"/><rect fill="#e6e6e6" height="24.7" rx="3.8" width="176.8" x="392.45" y="185.8"/><rect fill="#e6e6e6" height="24.7" rx="3.8" width="152.69" x="392.98" y="221.46"/><path d="m394.77 11.02 175.75 160.13m0-160.13-175.75 160.13" fill="none" stroke="#000"/><rect height="17.73" rx="5.03" stroke="#000" stroke-miterlimit="10" width="107.6" x="1.02" y="150.09"/><rect fill="#e6e6e6" height="24.7" rx="3.8" width="176.8" x="1.02" y="181.79"/><rect fill="#e6e6e6" height="24.7" rx="3.8" width="152.13" x="1.54" y="217.45"/><g stroke-miterlimit="10"><path d="m550.55 326.53h23v26.55h-23c-2.76 0-5-2.24-5-5v-16.55c0-2.76 2.24-5 5-5z" fill="none" stroke="#7e8580" transform="matrix(-1 0 -0 -1 1119.09 679.62)"/><path d="m517.3 326.53h28v26.55h-28z" fill="none" stroke="#7e8580" transform="matrix(-1 0 -0 -1 1062.6 679.62)"/><path d="m494.3 326.53h23v26.55h-23c-2.76 0-5-2.24-5-5v-16.55c0-2.76 2.24-5 5-5z" fill="#fff" stroke="#000"/><path d="m497.61 337.36 5.72-3.42 5.66 3.42v5.81l-5.53 3.47-5.85-3.36z" fill="none" stroke="#000"/><path d="m503.3 340.73 5.69-3.37z" fill="none" stroke="#000"/><path d="m503.46 346.64-.16-5.91-5.69-3.37" fill="none" stroke="#000"/><path d="m525.76 335.88h11.08" fill="none" stroke="#808080"/><path d="m525.76 338.83h11.08" fill="none" stroke="#808080"/><path d="m525.76 341.72h11.08" fill="none" stroke="#808080"/><path d="m525.76 344.71h11.08" fill="none" stroke="#808080"/><path d="m556.1 336.74-3.47 3.41 3.47 3.36" fill="none" stroke="#808080"/><path d="m561.09 334.83-3.19 10.92" fill="none" stroke="#808080"/><path d="m562.77 336.74 3.69 3.38-3.69 3.39" fill="none" stroke="#808080"/><rect height="30.01" rx="5.03" stroke="#000" width="89.48" x="393.69" y="257.12"/></g><rect fill="#e6e6e6" height="9.85" rx=".99" width="29.99" x="402.4" y="267.2"/><rect fill="#e6e6e6" height="9.85" rx=".99" width="37.92" x="439.14" y="267.2"/></svg>
